General
Complete name                    : Lock, Stock and Two Smoking Barrels.mkv
Format                           : Matroska
File size                        : 1.62 GiB
Duration                         : 1h 42mn
Overall bit rate                 : 2 255 Kbps


Video
ID                               : 1
Format                           : AVC

Duration                         : 1h 42mn
Bit rate                         : 1 758 Kbps
Width                            : 716 pixels
Height                           : 552 pixels
Display aspect ratio             : 16/9
Frame rate                       : 25.000 fps
Resolution                       : 24 bits
Colorimetry                      : 4:2:0
Scan type                        : Progressive
Bits/(Pixel*Frame)               : 0.178
Stream size                      : 1.26 GiB (78%)
Writing library                  : x264 core 79

Audio
ID                               : 2
Format                           : AC-3
Format/Info                      : Audio Coding 3
Codec ID                         : A_AC3
Duration                         : 1h 42mn
Bit rate mode                    : Constant
Bit rate                         : 448 Kbps
Channel(s)                       : 6 channels
Channel positions                : Front: L C R, Surround: L R, LFE
Sampling rate                    : 48.0 KHz
Stream size                      : 329 MiB (20%)
Language                         : English

Text #1
Language                         : Danish

Text #2
Language                         : Finnish

Text #3
Language                         : Norwegian

Text #4
Language                         : Swedish